# xmcd
#
# Track frame offsets: 
#        150
#        15597
#        26811
#        52828
#        76698
#        96847
#        115661
#        131470
#        164880
#        182716
#        195582
#        214049
#        236308
#        267898
#
# Disc length: 3755 seconds
#
# Revision: 0
# Processed by: cddbd v1.5.1PL2 Copyright (c) Steve Scherf et al.
# Submitted via: ExactAudioCopy v0.95a5
#
DISCID=af0ea90e
DTITLE=Blues Plate Special - Hot n Tasty
DYEAR=2002
DGENRE=Blues
TTITLE0=Good News of the Blues
TTITLE1=Can't Be My Baby
TTITLE2=Givin' Me Reasons
TTITLE3=Born In Chicago
TTITLE4=Hot 'n Tasty
TTITLE5=Ironin' Board
TTITLE6=I Got My Mojo Working
TTITLE7=Never Trust A Woman
TTITLE8=Nobody Else Like Me
TTITLE9=Scramblin'
TTITLE10=So Glad You're Mine
TTITLE11=Terraplane Blues
TTITLE12=Texas Flood
TTITLE13=You Upset Me
EXTD=
EXTT0=
EXTT1=
EXTT2=
EXTT3=
EXTT4=
EXTT5=
EXTT6=
EXTT7=
EXTT8=
EXTT9=
EXTT10=
EXTT11=
EXTT12=
EXTT13=
PLAYORDER=
